# xmcd
#
# Track frame offsets:
#	150
#	13216
#	23931
#	36055
#	47948
#	60209
#	72517
#	88519
#	101596
#	115886
#	128867
#	138441
#	150552
#	162233
#	175690
#	189411
#	199033
#	211077
#	222317
#	235922
#
# Disc length: 3321 seconds
#
# Revision: 1
# Processed by: cddbd v1.5.2PL0 Copyright (c) Steve Scherf et al.
# Submitted via: audiograbber 1.83.01
#
DISCID=130cf714
DTITLE=Verschiedene - Hit Festival-Blue Grass CD 6
DYEAR=1900
DGENRE=Bluegrass
TTITLE0=Bill Monroe - Tgat Home Above
TTITLE1=Johnny Duncan and His Blue Grass Boys - Get Along Home Cindy
TTITLE2=Lester Flatt and Earl Scruggs - Be Ready For Tpmmorrow May Never Come
TTITLE3=The Stanley Brothers - Our Last Goodbye
TTITLE4=Bill Monroe - No Letter In The Mail
TTITLE5=The Blue Sky Boys - Are You From Dixie
TTITLE6=Charlie Monroe - Rosa Lee McFall
TTITLE7=Lester Flatt and Earl Scruggs - Reunion in Heaven
TTITLE8=Uncle Dave Macon - Buddy Won't You Roll Down The Line
TTITLE9=Bill Monroe - It's Mighty Dark To Travel
TTITLE10=Jim and Jesse - Air Mail Special
TTITLE11=The Stanley Brothers - Poison Lies
TTITLE12=Lester Flatt and Earl Scruggs - Till The End Of World Rolls Around
TTITLE13=Earl Johnson and His Cloudhoppers - Ain't Nobody's Business
TTITLE14=Bill Monroe - Six White Horses
TTITLE15=Charlie Monroe - No Home, No Place To Pillow My Head
TTITLE16=The Stanley Brothers - Dickson County Breakdown
TTITLE17=Lester Flatt and Earl Scruggs - You're Not A Drop In The Bucket
TTITLE18=E. E. Hack String Band - Western Kentucky Limited
TTITLE19=Bill Monroe - I'm Going Back To Old Kentucky
EXTD=
EXTT0=
EXTT1=
EXTT2=
EXTT3=
EXTT4=
EXTT5=
EXTT6=
EXTT7=
EXTT8=
EXTT9=
EXTT10=
EXTT11=
EXTT12=
EXTT13=
EXTT14=
EXTT15=
EXTT16=
EXTT17=
EXTT18=
EXTT19=
PLAYORDER=
